<?xml version="1.0" encoding="UTF-8" standalone="no"?>
<!DOCTYPE svg PUBLIC "-//W3C//DTD SVG 1.1//EN" "http://www.w3.org/Graphics/SVG/1.1/DTD/svg11.dtd">
<svg width="100%" height="100%" viewBox="0 0 294 47" version="1.1" xmlns="http://www.w3.org/2000/svg" xmlns:xlink="http://www.w3.org/1999/xlink" xml:space="preserve" xmlns:serif="http://www.serif.com/" style="fill-rule:evenodd;clip-rule:evenodd;stroke-linejoin:round;stroke-miterlimit:2;">
    <g transform="matrix(1,0,0,1,-63.4516,-369.066)">
        <g transform="matrix(1,0,0,1,-6.23619,-5.31768)">
            <path d="M70.622,375.318L86.644,375.318L93.895,403.84L101.699,375.318L116.133,375.318L101.215,419.862L86.644,419.862L70.622,375.318Z" style="fill:rgb(0,61,113);fill-rule:nonzero;stroke:rgb(199,255,159);stroke-width:1.87px;"/>
            <path d="M135.055,375.318L150.594,375.318L166.616,419.862L151.561,419.862L150.11,414.061L135.539,414.061L133.95,419.862L119.033,419.862L135.055,375.318ZM138.439,404.945L147.072,404.945L142.79,390.373L138.439,404.945Z" style="fill:rgb(0,61,113);fill-rule:nonzero;stroke:rgb(199,255,159);stroke-width:1.87px;"/>
            <path d="M170.829,375.318L194.033,375.318C200.755,375.364 205.463,376.623 208.156,379.096C210.849,381.568 212.265,384.292 212.403,387.268L212.403,387.818C212.403,390.541 211.667,393.044 210.193,395.328C208.72,397.612 207.086,398.846 205.29,399.03C208.421,400.461 210.32,402.146 210.988,404.084C211.655,406.022 211.989,408.421 211.989,411.282L211.989,413.636C211.989,415.113 212.07,416.232 212.231,416.993C212.392,417.754 212.956,418.25 213.923,418.481L213.923,419.862L198.384,419.862C198.108,418.435 197.935,417.076 197.866,415.787C197.797,414.498 197.762,413.347 197.762,412.334C197.716,410.493 197.567,409.008 197.314,407.88C197.06,406.752 196.289,405.958 195,405.497C194.494,405.267 193.895,405.106 193.204,405.014C192.514,404.922 191.8,404.876 191.064,404.876C190.649,404.876 190.235,404.887 189.82,404.91C189.406,404.933 188.969,404.945 188.508,404.945L188.232,404.945C187.818,404.945 187.415,404.956 187.023,404.979C186.632,405.002 186.252,405.014 185.884,405.014L185.884,419.862L170.829,419.862L170.829,375.318ZM185.401,386.298L185.401,394.24L194.033,394.24C195.368,394.286 196.393,393.899 197.106,393.079C197.82,392.259 198.177,391.357 198.177,390.373L198.177,390.028C198.085,389.107 197.659,388.267 196.899,387.507C196.14,386.747 195.023,386.367 193.55,386.367L185.401,386.298Z" style="fill:rgb(0,61,113);fill-rule:nonzero;stroke:rgb(199,255,159);stroke-width:1.87px;"/>
            <path d="M221.174,375.318L234.779,375.318L250.318,398.522L249.834,391.34L249.834,375.318L264.406,375.318L264.406,419.862L250.318,419.862L234.779,396.105L235.262,403.356L235.262,419.862L221.174,419.862L221.174,375.318Z" style="fill:rgb(0,61,113);fill-rule:nonzero;stroke:rgb(199,255,159);stroke-width:1.87px;"/>
            <path d="M272.762,375.801L309.157,375.801L309.157,386.367L287.818,386.367L287.818,392.307L305.773,392.307L305.773,402.873L287.818,402.873L287.818,409.296L310.124,409.296L310.124,419.862L272.762,419.862L272.762,375.801Z" style="fill:rgb(0,61,113);fill-rule:nonzero;stroke:rgb(199,255,159);stroke-width:1.87px;"/>
            <path d="M313.785,375.318L330.29,375.318L337.541,389.89L344.862,375.318L361.851,375.318L344.862,403.84L344.862,419.862L330.29,419.862L330.29,403.84L313.785,375.318Z" style="fill:rgb(0,61,113);fill-rule:nonzero;stroke:rgb(199,255,159);stroke-width:1.87px;"/>
        </g>
    </g>
</svg>
